<?xml version="1.0" encoding="UTF-8"?>
<svg id="Layer_2" data-name="Layer 2" xmlns="http://www.w3.org/2000/svg" viewBox="0 0 245.33 42.66">
  <defs>
    <style>
      .cls-1 {
        fill: url(#linear-gradient);
      }
    </style>
    <linearGradient id="linear-gradient" x1="0" y1="21.33" x2="245.33" y2="21.33" gradientUnits="userSpaceOnUse">
      <stop offset="0" stop-color="#761ed6"/>
      <stop offset="1" stop-color="#d41d73"/>
    </linearGradient>
  </defs>
  <g id="Layer_1-2">
    <path class="cls-1" d="m17.76,42.42H6.18c-3.84,0-5.76-2.88-5.76-5.88s1.98-5.82,5.88-5.82h12.12c1.62,0,2.34-1.14,2.34-2.16,0-1.14-.72-2.28-2.34-2.28h-6C4.2,26.28,0,22.44,0,13.74S4.44.18,13.26.18h9.36c4.02,0,6.12,2.94,6.12,5.82s-2.1,5.94-6.18,5.94h-10.08c-1.62,0-2.28,1.08-2.28,2.22,0,1.02.66,2.16,2.28,2.16h6c8.46,0,12.42,3.96,12.42,12.66s-4.38,13.44-13.14,13.44Zm54.72-7.68c.3.78.42,1.62.42,2.28,0,3.48-3.18,5.64-6.36,5.64-2.22,0-3.96-1.32-4.98-3.78l-.84-2.04h-14.82l-.96,2.04c-1.2,2.52-3,3.78-5.16,3.78-3.12,0-6.18-2.4-6.18-5.76,0-.72,0-1.44.36-2.16l6.42-14.22c1.14-2.58,2.94-3.84,5.1-3.84,3.3,0,6.24,2.46,6.24,5.58,0,.84-.12,1.62-.42,2.34l-.66,1.56h5.7l-7.62-18.18c-.36-.84-.42-1.56-.42-2.28,0-3.3,3-5.7,6.12-5.7,2.22,0,4.14,1.32,5.22,3.84l12.84,30.9Zm17.58,2.1c0,3.84-2.7,5.82-5.88,5.82s-5.76-1.98-5.76-5.82V11.94h-4.08c-3.66,0-5.82-2.7-5.82-5.88S70.68.18,74.34.18h19.68c3.66,0,5.88,2.7,5.88,5.88s-2.22,5.88-5.88,5.88h-3.96v24.9Zm19.2,5.58c-3.9,0-5.82-1.98-5.82-5.88V6.06c0-3.9,1.92-5.88,5.82-5.88h23.28c3.66,0,5.88,2.64,5.88,5.88s-2.22,5.82-5.88,5.82h-17.52v3.6h17.52c3.66,0,5.88,2.64,5.88,5.82s-2.22,5.82-5.88,5.82h-17.52v3.54h17.52c3.66,0,5.88,2.7,5.88,5.88s-2.22,5.88-5.88,5.88h-23.28Zm39.72,0c-3.9,0-5.82-1.98-5.82-5.88V5.82c0-3.78,2.7-5.82,5.82-5.82s5.76,2.04,5.76,5.82v24.84h11.88c3.6,0,5.52,2.7,5.52,5.88s-1.92,5.88-5.52,5.88h-17.64Zm32.1,0c-3.9,0-5.82-1.98-5.82-5.88V5.82c0-3.78,2.7-5.82,5.82-5.82s5.76,2.04,5.76,5.82v24.84h11.88c3.6,0,5.52,2.7,5.52,5.88s-1.92,5.88-5.52,5.88h-17.64Zm63.84-7.68c.3.78.42,1.62.42,2.28,0,3.48-3.18,5.64-6.36,5.64-2.22,0-3.96-1.32-4.98-3.78l-.84-2.04h-14.82l-.96,2.04c-1.2,2.52-3,3.78-5.16,3.78-3.12,0-6.18-2.4-6.18-5.76,0-.72,0-1.44.36-2.16l6.42-14.22c1.14-2.58,2.94-3.84,5.1-3.84,3.3,0,6.24,2.46,6.24,5.58,0,.84-.12,1.62-.42,2.34l-.66,1.56h5.7l-7.62-18.18c-.36-.84-.42-1.56-.42-2.28,0-3.3,3-5.7,6.12-5.7,2.22,0,4.14,1.32,5.22,3.84l12.84,30.9Z"/>
  </g>
</svg>